#N canvas 151 60 955 567 24;
#X obj 111 455 *~;
#X obj 310 414 line~;
#X obj 371 215 t b b;
#X obj 264 272 bng 15 250 50 0 empty empty empty 17 7 0 10 -262144
-1 -1;
#X msg 324 274 0.6 10;
#X obj 495 255 delay 10;
#X msg 445 321 0.5 100;
#X msg 612 361 0.1 1000;
#X obj 613 317 delay 100;
#X obj 777 355 delay 1000;
#X msg 779 410 0 300;
#X obj 82 117 trigger bang bang;
#X obj 77 388 osc~;
#X obj 133 29 inlet;
#X obj 176 525 outlet~;
#X obj 82 239 i \$1;
#X obj 83 319 mtof;
#X connect 0 0 14 0;
#X connect 1 0 0 1;
#X connect 2 0 5 0;
#X connect 2 1 4 0;
#X connect 3 0 2 0;
#X connect 4 0 1 0;
#X connect 5 0 6 0;
#X connect 5 0 8 0;
#X connect 6 0 1 0;
#X connect 7 0 1 0;
#X connect 8 0 7 0;
#X connect 8 0 9 0;
#X connect 9 0 10 0;
#X connect 10 0 1 0;
#X connect 11 0 3 0;
#X connect 11 1 15 0;
#X connect 12 0 0 0;
#X connect 13 0 11 0;
#X connect 15 0 16 0;
#X connect 16 0 12 0;
